<svg xmlns="http://www.w3.org/2000/svg" version="1.1" viewBox="-5.0 -10.0 110.0 135.0">
 <path d="m69.004 26.516 5.4727 5.4844h-11.039c-3.1914 0-6.1992 1.25-8.4766 3.5234l-24.742 24.723c-1.1133 1.1328-2.6133 1.7539-4.2188 1.7539h-12v6h12c3.2227 0 6.2344-1.2578 8.4766-3.5234l24.73-24.711c1.1406-1.1406 2.6445-1.7695 4.2344-1.7695h11.039l-5.4727 5.4844 4.2461 4.2383 12.691-12.719-12.699-12.723z"/>
 <path d="m30.234 39.766 6 6 4.2422-4.2422-5.9844-5.9883c-2.2578-2.2773-5.2695-3.5352-8.4922-3.5352h-12v6h12c1.6055 0 3.1055 0.62109 4.2344 1.7656z"/>
 <path d="m69.004 56.516 5.4727 5.4844h-11.039c-1.5898 0-3.0938-0.62891-4.2344-1.7656l-6-6-4.2422 4.2422 6 6c2.2734 2.2734 5.2852 3.5234 8.4766 3.5234h11.039l-5.4727 5.4844 4.2461 4.2383 12.695-12.723-12.699-12.723z"/>
<text x="0.0" y="117.5" font-size="5.0" font-weight="bold" font-family="Arbeit Regular, Helvetica, Arial-Unicode, Arial, Sans-serif" fill="#000000">Created by Ahsan Damar</text><text x="0.0" y="122.5" font-size="5.0" font-weight="bold" font-family="Arbeit Regular, Helvetica, Arial-Unicode, Arial, Sans-serif" fill="#000000">from Noun Project</text></svg>